#define CDlogo_width 56
#define CDlogo_height 32
static unsigned char CDlogo_bits[] = {
   0x00, 0x00, 0x00, 0x00, 0x00, 0x00, 0x00, 0x00, 0x00, 0x00, 0x00, 0x00,
   0x00, 0x00, 0x00, 0x00, 0x00, 0x00, 0x00, 0x00, 0x00, 0x00, 0xf0, 0x30,
   0x26, 0x3a, 0x63, 0x0e, 0x00, 0x08, 0x49, 0x69, 0xab, 0x94, 0x04, 0x00,
   0x08, 0x09, 0xe9, 0xab, 0x14, 0x04, 0x00, 0x08, 0x49, 0xa9, 0xba, 0x97,
   0x04, 0x00, 0x08, 0x31, 0xa6, 0x8a, 0x64, 0x04, 0x00, 0x08, 0x01, 0x00,
   0x00, 0x00, 0x00, 0x80, 0x0f, 0x71, 0xf0, 0x1f, 0xfc, 0x03, 0x40, 0x00,
   0x89, 0x08, 0x20, 0x02, 0x04, 0x20, 0x00, 0x89, 0x04, 0x20, 0x01, 0x08,
   0x10, 0x0e, 0x89, 0xc4, 0x1f, 0xe1, 0x08, 0x10, 0x11, 0x89, 0x24, 0x00,
   0x11, 0x09, 0x10, 0x11, 0x89, 0xc4, 0x0f, 0x11, 0x06, 0x10, 0x11, 0x89,
   0x04, 0x10, 0x11, 0x00, 0x10, 0x11, 0x89, 0x08, 0x20, 0x11, 0x00, 0x10,
   0x11, 0x89, 0xf0, 0x21, 0x11, 0x06, 0x10, 0x11, 0x89, 0x00, 0x22, 0x11,
   0x09, 0x10, 0x0e, 0x89, 0xf8, 0x21, 0xe1, 0x08, 0x10, 0x00, 0x89, 0x04,
   0x20, 0x01, 0x08, 0x20, 0x80, 0x88, 0x04, 0x10, 0x02, 0x04, 0xc0, 0x7f,
   0x70, 0xf8, 0x0f, 0xfc, 0x03, 0x00, 0x00, 0x00, 0x00, 0x00, 0x00, 0x00,
   0x70, 0x32, 0x9d, 0x09, 0xa6, 0x4e, 0x06, 0x90, 0x4a, 0x49, 0x0a, 0xa9,
   0x52, 0x09, 0x90, 0x0a, 0x49, 0x0a, 0xa9, 0x52, 0x09, 0x90, 0x4a, 0xc9,
   0x0b, 0xaf, 0x52, 0x09, 0x70, 0x72, 0x49, 0x32, 0xe9, 0x4e, 0x06, 0x00,
   0x00, 0x00, 0x00, 0x00, 0x00, 0x00, 0x00, 0x00, 0x00, 0x00, 0x00, 0x00,
   0x00, 0x00, 0x00, 0x00, 0x00, 0x00, 0x00, 0x00};
